<svg xmlns="http://www.w3.org/2000/svg" width="64" height="64">
	<mask id="gradientMask">
		<polygon points="64 64 64 12 32 8 0 12 0 64" fill="white" />
	</mask>
	<mask id="gapsMask">
		<rect width="64" height="64" fill="white" />
		<line x2="2" stroke="black" y2="34" x1="32" y1="8" stroke-width="1.5" />
		<line x2="9" stroke="black" y2="61" x1="32" y1="8" stroke-width="1.5" />
		<line x2="31.5" stroke="black" y2="63" x1="31.5" y1="8" stroke-width="1.5" />
		<line x2="56" stroke="black" y2="63" x1="32" y1="8" stroke-width="1.5" />
		<line x2="64" stroke="black" y2="35" x1="32" y1="8" stroke-width="1.5" />
	</mask>
	<g mask="url(#gapsMask)">
		<polygon fill="#ffa64d" points="32 8 14 54 7 27" />
		<polygon fill="#ff4d4d" points="32 8 1 12 3 33" />
		<polygon fill="#88ff4d" points="32 8 54 55 30 58" />
		<polygon fill="#ff3" points="32 8 10 59 32 62" />
		<polygon fill="#a64dff" points="32 8 61 12 59 33" />
		<polygon fill="#3bf" points="32 8 56 62 63 34" />
	</g>
	<g>
		<ellipse rx="32" ry="56" fill="url(#white)" cx="32" cy="8" mask="url(#gradientMask)" />
		<radialGradient id="white">
			<stop stop-color="white" stop-opacity="0.5" />
			<stop stop-color="white" offset="1" stop-opacity="0" />
		</radialGradient>
	</g>
	<polygon points="51.5 8 31.5 36 12 8" fill="white" stroke="gray" stroke-opacity="0.333333" />
</svg>
